# xmcd
#
# Track frame offsets: 
#        150
#        16361
#        38062
#        62615
#        82150
#        101329
#        127550
#        155313
#        174371
#        196987
#        219442
#        230673
#        241865
#        253478
#
# Disc length: 3532 seconds
#
# Revision: 6
# Processed by: cddbd v1.5.2PL0 Copyright (c) Steve Scherf et al.
# Submitted via: ExactAudioCopy v0.99pb5
#
DISCID=af0dca0e
DTITLE=Nightlosers - The Groove Distillery - Plum Brandy Blues
DYEAR=1997
DGENRE=Blues
TTITLE0=Shame shame shame
TTITLE1=Baby why you want to let go
TTITLE2=Everyday i have the blues
TTITLE3=Pretty thing
TTITLE4=All your love
TTITLE5=Little city woman
TTITLE6=Stormy monday blues
TTITLE7=Five long years
TTITLE8=Hoochie coochie man
TTITLE9=Mystery train
TTITLE10=Trouble in mind
TTITLE11=Balkan blue rumba
TTITLE12=Blue suede shoes
TTITLE13=Goodnight irene
EXTD=YEAR: 1997
EXTT0=
EXTT1=
EXTT2=
EXTT3=
EXTT4=
EXTT5=
EXTT6=
EXTT7=
EXTT8=
EXTT9=
EXTT10=
EXTT11=
EXTT12=
EXTT13=
PLAYORDER=
